<?xml version="1.0" encoding="UTF-8"?>
<svg id="Layer_1" data-name="Layer 1" xmlns="http://www.w3.org/2000/svg" version="1.1" viewBox="0 0 256 256">
  <defs>
    <style>
      .cls-1 {
        fill: #62c3f7;
      }

      .cls-1, .cls-2 {
        stroke-width: 0px;
      }

      .cls-2 {
        fill: #317fc2;
      }
    </style>
  </defs>
  <path class="cls-2" d="M40,108c0-1.3-.2-2.7-.2-4.1,0-33.1,26.9-59.9,59.9-59.9s44.5,14.1,54.2,34.4c7.2-5.1,16-8.1,25.6-8.1,22,0,40.3,16.2,43.6,37.3,15.2,4.2,26.4,18.1,26.4,34.5s-16,35.8-35.8,35.8H51.2c-19.8,0-35.8-16-35.8-35.8s10.4-29.4,24.6-34.1Z"/>
  <path class="cls-1" d="M28.1,151.1c0-1.1-.2-2.3-.2-3.6,0-28.8,23.4-52.2,52.2-52.2s38.8,12.3,47.2,30c6.3-4.4,14-7.1,22.3-7.1,19.2,0,35.1,14.1,38,32.5,13.2,3.6,23,15.7,23,30.1s-14,31.2-31.2,31.2H37.8c-17.3,0-31.2-14-31.2-31.2s9-25.6,21.5-29.7Z"/>
</svg>