<?xml version="1.0" encoding="UTF-8"?>
<svg id="Layer_1" data-name="Layer 1" xmlns="http://www.w3.org/2000/svg" version="1.1" viewBox="0 0 256 256">
  <defs>
    <style>
      .cls-1 {
        fill: #f9c100;
        stroke-width: 0px;
      }
    </style>
  </defs>
  <circle class="cls-1" cx="128" cy="128" r="57.2"/>
  <path class="cls-1" d="M128,55.2c-1.2,0-2.1-1-2.1-2.1v-19.4c0-1.2,1-2.1,2.1-2.1s2.1,1,2.1,2.1v19.4c0,1.2-1,2.1-2.1,2.1Z"/>
  <path class="cls-1" d="M128,224.5c-1.2,0-2.1-1-2.1-2.1v-19.4c0-1.2,1-2.1,2.1-2.1s2.1,1,2.1,2.1v19.4c0,1.2-1,2.1-2.1,2.1Z"/>
  <path class="cls-1" d="M53,130.1h-19.4c-1.2,0-2.1-1-2.1-2.1s1-2.1,2.1-2.1h19.4c1.2,0,2.1,1,2.1,2.1s-1,2.1-2.1,2.1Z"/>
  <path class="cls-1" d="M222.4,130.1h-19.4c-1.2,0-2.1-1-2.1-2.1s1-2.1,2.1-2.1h19.4c1.2,0,2.1,1,2.1,2.1s-1,2.1-2.1,2.1Z"/>
  <path class="cls-1" d="M181,77.1c-.5,0-1.1-.2-1.5-.6-.8-.8-.8-2.2,0-3l13.7-13.7c.8-.8,2.2-.8,3,0s.8,2.2,0,3l-13.7,13.7c-.4.4-1,.6-1.5.6Z"/>
  <path class="cls-1" d="M61.3,196.9c-.5,0-1.1-.2-1.5-.6-.8-.8-.8-2.2,0-3l13.7-13.7c.8-.8,2.2-.8,3,0s.8,2.2,0,3l-13.7,13.7c-.4.4-1,.6-1.5.6Z"/>
  <path class="cls-1" d="M75,77.1c-.5,0-1.1-.2-1.5-.6l-13.7-13.7c-.8-.8-.8-2.2,0-3s2.2-.8,3,0l13.7,13.7c.8.8.8,2.2,0,3-.4.4-1,.6-1.5.6Z"/>
  <path class="cls-1" d="M194.7,196.9c-.5,0-1.1-.2-1.5-.6l-13.7-13.7c-.8-.8-.8-2.2,0-3s2.2-.8,3,0l13.7,13.7c.8.8.8,2.2,0,3-.4.4-1,.6-1.5.6Z"/>
</svg>