<?xml version="1.0" encoding="UTF-8"?>
<svg id="Layer_1" data-name="Layer 1" xmlns="http://www.w3.org/2000/svg" version="1.1" viewBox="0 0 256 256">
  <defs>
    <style>
      .cls-1 {
        fill: #85e5ff;
      }

      .cls-1, .cls-2 {
        stroke-width: 0px;
      }

      .cls-2 {
        fill: #62c3f7;
      }
    </style>
  </defs>
  <path class="cls-1" d="M199.9,98.4c-19,9.7-42.3,2.2-52-16.7-9.7-19-2.2-42.3,16.7-52,1.8-.9,3.7-1.6,5.5-2.3-8.9-.6-18.2,1.1-26.7,5.5-24.9,12.8-34.7,43.2-21.9,68.1,12.8,24.9,43.2,34.7,68.1,21.9,16.5-8.5,26.4-24.8,27.4-42.1-3.5,7.3-9.3,13.6-17.2,17.6Z"/>
  <path class="cls-2" d="M32.2,156.4c0-1.4-.2-2.8-.2-4.2,0-34.3,27.8-62.1,62.1-62.1s46.2,14.5,56.1,35.6c7.5-5.3,16.6-8.5,26.5-8.5,22.9,0,41.8,16.7,45.2,38.6,15.7,4.3,27.3,18.7,27.3,35.8s-16.6,37.1-37.1,37.1H43.8c-20.5,0-37.1-16.6-37.1-37.1s10.7-30.4,25.5-35.3Z"/>
</svg>