<?xml version="1.0" encoding="UTF-8"?>
<svg id="Capa_1" data-name="Capa 1" xmlns="http://www.w3.org/2000/svg" version="1.1" viewBox="0 0 800 800">
  <defs>
    <style>
      .cls-1 {
        fill: #62c3f7;
        stroke-width: 0px;
      }
    </style>
  </defs>
  <path class="cls-1" d="M513.6,206c0-13-10.6-23.6-23.6-23.6H81.4c-13,0-23.6,10.6-23.6,23.6s10.6,23.6,23.6,23.6h408.6c13,0,23.6-10.6,23.6-23.6Z"/>
  <path class="cls-1" d="M718.6,279.4H242.3c-13,0-23.6,10.6-23.6,23.6s10.6,23.6,23.6,23.6h476.3c13,0,23.6-10.6,23.6-23.6s-10.6-23.6-23.6-23.6Z"/>
  <path class="cls-1" d="M607.2,423.6c13,0,23.6-10.6,23.6-23.6s-10.6-23.6-23.6-23.6H128.4c-13,0-23.6,10.6-23.6,23.6s10.6,23.6,23.6,23.6h478.7Z"/>
  <path class="cls-1" d="M685.6,473.4H207.7c-13,0-23.6,10.6-23.6,23.6s10.6,23.6,23.6,23.6h477.9c13,0,23.6-10.6,23.6-23.6s-10.6-23.6-23.6-23.6Z"/>
  <path class="cls-1" d="M453.7,570.4H136.7c-13,0-23.6,10.6-23.6,23.6s10.6,23.6,23.6,23.6h317c13,0,23.6-10.6,23.6-23.6,0-13-10.6-23.6-23.6-23.6Z"/>
</svg>