<?xml version="1.0" encoding="UTF-8"?>
<svg id="Layer_1" data-name="Layer 1" xmlns="http://www.w3.org/2000/svg" version="1.1" viewBox="0 0 256 256">
  <defs>
    <style>
      .cls-1 {
        fill: #62c3f7;
      }

      .cls-1, .cls-2, .cls-3 {
        stroke-width: 0px;
      }

      .cls-2 {
        fill: #317fc2;
      }

      .cls-3 {
        fill: #81b6e3;
      }
    </style>
  </defs>
  <path class="cls-2" d="M45.2,103c0-1.2-.2-2.5-.2-3.9,0-31.1,25.3-56.3,56.3-56.3s41.8,13.3,51,32.3c6.8-4.8,15-7.6,24.1-7.6,20.7,0,37.9,15.2,41,35.1,14.3,3.9,24.8,17,24.8,32.4s-15,33.7-33.7,33.7H55.7c-18.6,0-33.7-15-33.7-33.7s9.8-27.6,23.1-32.1Z"/>
  <path class="cls-1" d="M34,143.5c0-1-.2-2.2-.2-3.4,0-27.1,22-49.1,49.1-49.1s36.5,11.6,44.4,28.2c5.9-4.1,13.2-6.7,21-6.7,18.1,0,33,13.3,35.7,30.6,12.4,3.4,21.6,14.8,21.6,28.3s-13.2,29.3-29.3,29.3H43.1c-16.3,0-29.3-13.2-29.3-29.3s8.5-24.1,20.2-27.9h0Z"/>
  <path class="cls-3" d="M112.2,171.3c0-.8-.1-1.6-.1-2.5,0-19.8,16.1-35.9,35.9-35.9s26.7,8.5,32.5,20.7c4.3-3,9.6-4.9,15.4-4.9,13.2,0,24.2,9.7,26.2,22.4,9.1,2.5,15.8,10.8,15.8,20.7s-9.6,21.5-21.5,21.5h-97.5c-11.9,0-21.5-9.6-21.5-21.5s6.2-17.6,14.8-20.4h0Z"/>
</svg>