<?xml version="1.0" encoding="UTF-8"?>
<svg id="Layer_1" data-name="Layer 1" xmlns="http://www.w3.org/2000/svg" version="1.1" viewBox="0 0 256 256">
  <defs>
    <style>
      .cls-1 {
        fill: #62c3f7;
      }

      .cls-1, .cls-2 {
        stroke-width: 0px;
      }

      .cls-2 {
        fill: #7bd8f7;
      }
    </style>
  </defs>
  <path class="cls-1" d="M54.5,86.3c0-1.1-.1-2.1-.1-3.2,0-26.3,21.3-47.6,47.6-47.6s35.4,11.2,43.1,27.3c5.7-4.1,12.7-6.5,20.3-6.5,17.5,0,32,12.9,34.7,29.6,12.1,3.3,21,14.3,21,27.5s-12.8,28.5-28.5,28.5H63.4c-15.7,0-28.5-12.8-28.5-28.5s8.2-23.3,19.6-27.1Z"/>
  <path class="cls-2" d="M57.1,182.4c-.2,0-.5,0-.7-.1-1.1-.4-1.7-1.6-1.3-2.7l6.8-19.7c.4-1.1,1.6-1.7,2.7-1.3,1.1.4,1.7,1.6,1.3,2.7l-6.8,19.7c-.3.9-1.1,1.4-2,1.4Z"/>
  <path class="cls-2" d="M44,220.5c-.2,0-.5,0-.7-.1-1.1-.4-1.7-1.6-1.3-2.7l6.8-19.7c.4-1.1,1.6-1.7,2.7-1.3,1.1.4,1.7,1.6,1.3,2.7l-6.8,19.7c-.3.9-1.1,1.4-2,1.4Z"/>
  <path class="cls-2" d="M71,203.6c-.2,0-.5,0-.7-.1-1.1-.4-1.7-1.6-1.3-2.7l6.8-19.7c.4-1.1,1.6-1.7,2.7-1.3,1.1.4,1.7,1.6,1.3,2.7l-6.8,19.7c-.3.9-1.1,1.4-2,1.4Z"/>
  <path class="cls-2" d="M99.4,182.4c-.2,0-.5,0-.7-.1-1.1-.4-1.7-1.6-1.3-2.7l6.8-19.7c.4-1.1,1.6-1.7,2.7-1.3,1.1.4,1.7,1.6,1.3,2.7l-6.8,19.7c-.3.9-1.1,1.4-2,1.4Z"/>
  <path class="cls-2" d="M86.3,220.5c-.2,0-.5,0-.7-.1-1.1-.4-1.7-1.6-1.3-2.7l6.8-19.7c.4-1.1,1.6-1.7,2.7-1.3,1.1.4,1.7,1.6,1.3,2.7l-6.8,19.7c-.3.9-1.1,1.4-2,1.4Z"/>
  <path class="cls-2" d="M113.3,203.6c-.2,0-.5,0-.7-.1-1.1-.4-1.7-1.6-1.3-2.7l6.8-19.7c.4-1.1,1.6-1.7,2.7-1.3,1.1.4,1.7,1.6,1.3,2.7l-6.8,19.7c-.3.9-1.1,1.4-2,1.4Z"/>
  <path class="cls-2" d="M141.7,182.4c-.2,0-.5,0-.7-.1-1.1-.4-1.7-1.6-1.3-2.7l6.8-19.7c.4-1.1,1.6-1.7,2.7-1.3,1.1.4,1.7,1.6,1.3,2.7l-6.8,19.7c-.3.9-1.1,1.4-2,1.4Z"/>
  <path class="cls-2" d="M128.6,220.5c-.2,0-.5,0-.7-.1-1.1-.4-1.7-1.6-1.3-2.7l6.8-19.7c.4-1.1,1.6-1.7,2.7-1.3,1.1.4,1.7,1.6,1.3,2.7l-6.8,19.7c-.3.9-1.1,1.4-2,1.4Z"/>
  <path class="cls-2" d="M155.6,203.6c-.2,0-.5,0-.7-.1-1.1-.4-1.7-1.6-1.3-2.7l6.8-19.7c.4-1.1,1.6-1.7,2.7-1.3,1.1.4,1.7,1.6,1.3,2.7l-6.8,19.7c-.3.9-1.1,1.4-2,1.4Z"/>
  <path class="cls-2" d="M184.1,182.4c-.2,0-.5,0-.7-.1-1.1-.4-1.7-1.6-1.3-2.7l6.8-19.7c.4-1.1,1.6-1.7,2.7-1.3,1.1.4,1.7,1.6,1.3,2.7l-6.8,19.7c-.3.9-1.1,1.4-2,1.4Z"/>
  <path class="cls-2" d="M170.9,220.5c-.2,0-.5,0-.7-.1-1.1-.4-1.7-1.6-1.3-2.7l6.8-19.7c.4-1.1,1.6-1.7,2.7-1.3,1.1.4,1.7,1.6,1.3,2.7l-6.8,19.7c-.3.9-1.1,1.4-2,1.4Z"/>
</svg>