<?xml version="1.0" encoding="UTF-8"?>
<svg id="Layer_1" data-name="Layer 1" xmlns="http://www.w3.org/2000/svg" version="1.1" viewBox="0 0 256 256">
  <defs>
    <style>
      .cls-1 {
        fill: #62c3f7;
      }

      .cls-1, .cls-2 {
        stroke-width: 0px;
      }

      .cls-2 {
        fill: #7bd8f7;
      }
    </style>
  </defs>
  <path class="cls-1" d="M55.4,86.4c0-1-.1-2.1-.1-3.2,0-26,21.1-47,47-47s35,11,42.5,27c5.7-4,12.6-6.4,20.1-6.4,17.3,0,31.6,12.7,34.3,29.3,11.9,3.3,20.7,14.1,20.7,27.1s-12.6,28.1-28.1,28.1h-127.6c-15.5,0-28.1-12.6-28.1-28.1s8.1-23,19.4-26.7Z"/>
  <path class="cls-2" d="M76.5,169.5h6.1l-3.1,5.3c-.6,1-.2,2.3.8,2.9.3.2.7.3,1,.3.7,0,1.4-.4,1.8-1l3.1-5.3,3.1,5.3c.4.7,1.1,1,1.8,1s.7,0,1-.3c1-.6,1.3-1.9.8-2.9l-3.1-5.3h6.1c1.2,0,2.1-.9,2.1-2.1s-.9-2.1-2.1-2.1h-6.1l3.1-5.3c.6-1,.2-2.3-.8-2.9-1-.6-2.3-.2-2.9.8l-3.1,5.3-3.1-5.3c-.6-1-1.9-1.3-2.9-.8s-1.3,1.9-.8,2.9l3.1,5.3h-6.1c-1.2,0-2.1.9-2.1,2.1,0,1.2.9,2.1,2.1,2.1Z"/>
  <path class="cls-2" d="M96,207.1h-6.1l3.1-5.3c.6-1,.2-2.3-.8-2.9-1-.6-2.3-.2-2.9.8l-3.1,5.3-3.1-5.3c-.6-1-1.9-1.3-2.9-.8s-1.3,1.9-.8,2.9l3.1,5.3h-6.1c-1.2,0-2.1.9-2.1,2.1s.9,2.1,2.1,2.1h6.1l-3.1,5.3c-.6,1-.2,2.3.8,2.9.3.2.7.3,1,.3.7,0,1.4-.4,1.8-1l3.1-5.3,3.1,5.3c.4.7,1.1,1,1.8,1s.7,0,1-.3c1-.6,1.3-1.9.8-2.9l-3.1-5.3h6.1c1.2,0,2.1-.9,2.1-2.1,0-1.2-.9-2.1-2.1-2.1Z"/>
  <path class="cls-2" d="M110.7,190.4h6.1c1.2,0,2.1-.9,2.1-2.1s-.9-2.1-2.1-2.1h-6.1l3.1-5.3c.6-1,.2-2.3-.8-2.9-1-.6-2.3-.2-2.9.8l-3.1,5.3-3.1-5.3c-.6-1-1.9-1.3-2.9-.8-1,.6-1.3,1.9-.8,2.9l3.1,5.3h-6.1c-1.2,0-2.1.9-2.1,2.1s.9,2.1,2.1,2.1h6.1l-3.1,5.3c-.6,1-.2,2.3.8,2.9.3.2.7.3,1,.3.7,0,1.4-.4,1.8-1l3.1-5.3,3.1,5.3c.4.7,1.1,1,1.8,1s.7,0,1-.3c1-.6,1.3-1.9.8-2.9l-3.1-5.3Z"/>
  <path class="cls-2" d="M118.2,169.5h6.1l-3.1,5.3c-.6,1-.2,2.3.8,2.9.3.2.7.3,1,.3.7,0,1.4-.4,1.8-1l3.1-5.3,3.1,5.3c.4.7,1.1,1,1.8,1s.7,0,1-.3c1-.6,1.3-1.9.8-2.9l-3.1-5.3h6.1c1.2,0,2.1-.9,2.1-2.1s-.9-2.1-2.1-2.1h-6.1l3.1-5.3c.6-1,.2-2.3-.8-2.9-1-.6-2.3-.2-2.9.8l-3.1,5.3-3.1-5.3c-.6-1-1.9-1.3-2.9-.8-1,.6-1.3,1.9-.8,2.9l3.1,5.3h-6.1c-1.2,0-2.1.9-2.1,2.1s.9,2.1,2.1,2.1Z"/>
  <path class="cls-2" d="M137.8,207.1h-6.1l3.1-5.3c.6-1,.2-2.3-.8-2.9-1-.6-2.3-.2-2.9.8l-3.1,5.3-3.1-5.3c-.6-1-1.9-1.3-2.9-.8-1,.6-1.3,1.9-.8,2.9l3.1,5.3h-6.1c-1.2,0-2.1.9-2.1,2.1s.9,2.1,2.1,2.1h6.1l-3.1,5.3c-.6,1-.2,2.3.8,2.9.3.2.7.3,1,.3.7,0,1.4-.4,1.8-1l3.1-5.3,3.1,5.3c.4.7,1.1,1,1.8,1s.7,0,1-.3c1-.6,1.3-1.9.8-2.9l-3.1-5.3h6.1c1.2,0,2.1-.9,2.1-2.1s-.9-2.1-2.1-2.1Z"/>
  <path class="cls-2" d="M152.5,190.4h6.1c1.2,0,2.1-.9,2.1-2.1s-.9-2.1-2.1-2.1h-6.1l3.1-5.3c.6-1,.2-2.3-.8-2.9-1-.6-2.3-.2-2.9.8l-3.1,5.3-3.1-5.3c-.6-1-1.9-1.3-2.9-.8-1,.6-1.3,1.9-.8,2.9l3.1,5.3h-6.1c-1.2,0-2.1.9-2.1,2.1s.9,2.1,2.1,2.1h6.1l-3.1,5.3c-.6,1-.2,2.3.8,2.9.3.2.7.3,1,.3.7,0,1.4-.4,1.8-1l3.1-5.3,3.1,5.3c.4.7,1.1,1,1.8,1s.7,0,1-.3c1-.6,1.3-1.9.8-2.9l-3.1-5.3Z"/>
  <path class="cls-2" d="M160,169.5h6.1l-3.1,5.3c-.6,1-.2,2.3.8,2.9.3.2.7.3,1,.3.7,0,1.4-.4,1.8-1l3.1-5.3,3.1,5.3c.4.7,1.1,1,1.8,1s.7,0,1-.3c1-.6,1.3-1.9.8-2.9l-3.1-5.3h6.1c1.2,0,2.1-.9,2.1-2.1s-.9-2.1-2.1-2.1h-6.1l3.1-5.3c.6-1,.2-2.3-.8-2.9-1-.6-2.3-.2-2.9.8l-3.1,5.3-3.1-5.3c-.6-1-1.9-1.3-2.9-.8-1,.6-1.3,1.9-.8,2.9l3.1,5.3h-6.1c-1.2,0-2.1.9-2.1,2.1,0,1.2.9,2.1,2.1,2.1Z"/>
  <path class="cls-2" d="M179.5,207.1h-6.1l3.1-5.3c.6-1,.2-2.3-.8-2.9-1-.6-2.3-.2-2.9.8l-3.1,5.3-3.1-5.3c-.6-1-1.9-1.3-2.9-.8-1,.6-1.3,1.9-.8,2.9l3.1,5.3h-6.1c-1.2,0-2.1.9-2.1,2.1s.9,2.1,2.1,2.1h6.1l-3.1,5.3c-.6,1-.2,2.3.8,2.9.3.2.7.3,1,.3.7,0,1.4-.4,1.8-1l3.1-5.3,3.1,5.3c.4.7,1.1,1,1.8,1s.7,0,1-.3c1-.6,1.3-1.9.8-2.9l-3.1-5.3h6.1c1.2,0,2.1-.9,2.1-2.1,0-1.2-.9-2.1-2.1-2.1Z"/>
</svg>