<?xml version="1.0" encoding="UTF-8"?>
<svg id="Layer_1" data-name="Layer 1" xmlns="http://www.w3.org/2000/svg" version="1.1" viewBox="0 0 256 256">
  <defs>
    <style>
      .cls-1 {
        fill: #62c3f7;
      }

      .cls-1, .cls-2, .cls-3 {
        stroke-width: 0px;
      }

      .cls-2 {
        fill: #f9c100;
      }

      .cls-3 {
        fill: #7bd8f7;
      }
    </style>
  </defs>
  <path class="cls-1" d="M55.7,87c0-1-.1-2.1-.1-3.2,0-25.9,21-46.8,46.8-46.8s34.8,11,42.3,26.8c5.6-4,12.5-6.4,20-6.4,17.2,0,31.5,12.6,34.1,29.1,11.9,3.2,20.6,14.1,20.6,27s-12.5,28-28,28h-127c-15.5,0-28-12.5-28-28s8.1-22.9,19.3-26.6Z"/>
  <path class="cls-3" d="M58.3,181.5c-.2,0-.5,0-.7-.1-1.1-.4-1.7-1.6-1.3-2.6l6.7-19.4c.4-1.1,1.6-1.7,2.6-1.3,1.1.4,1.7,1.6,1.3,2.6l-6.7,19.4c-.3.9-1.1,1.4-2,1.4Z"/>
  <path class="cls-3" d="M45.4,219c-.2,0-.5,0-.7-.1-1.1-.4-1.7-1.6-1.3-2.6l6.7-19.4c.4-1.1,1.6-1.7,2.6-1.3,1.1.4,1.7,1.6,1.3,2.6l-6.7,19.4c-.3.9-1.1,1.4-2,1.4Z"/>
  <path class="cls-3" d="M71.9,202.3c-.2,0-.5,0-.7-.1-1.1-.4-1.7-1.6-1.3-2.6l6.7-19.4c.4-1.1,1.5-1.7,2.6-1.3,1.1.4,1.7,1.6,1.3,2.6l-6.7,19.4c-.3.9-1.1,1.4-2,1.4Z"/>
  <path class="cls-3" d="M87,219c-.2,0-.5,0-.7-.1-1.1-.4-1.7-1.6-1.3-2.6l6.7-19.4c.4-1.1,1.6-1.7,2.6-1.3,1.1.4,1.7,1.6,1.3,2.6l-6.7,19.4c-.3.9-1.1,1.4-2,1.4Z"/>
  <path class="cls-3" d="M113.5,202.3c-.2,0-.5,0-.7-.1-1.1-.4-1.7-1.6-1.3-2.6l6.7-19.4c.4-1.1,1.5-1.7,2.6-1.3,1.1.4,1.7,1.6,1.3,2.6l-6.7,19.4c-.3.9-1.1,1.4-2,1.4Z"/>
  <path class="cls-3" d="M141.5,181.5c-.2,0-.5,0-.7-.1-1.1-.4-1.7-1.6-1.3-2.6l6.7-19.4c.4-1.1,1.6-1.7,2.6-1.3,1.1.4,1.7,1.6,1.3,2.6l-6.7,19.4c-.3.9-1.1,1.4-2,1.4Z"/>
  <path class="cls-3" d="M128.6,219c-.2,0-.5,0-.7-.1-1.1-.4-1.7-1.6-1.3-2.6l6.7-19.4c.4-1.1,1.6-1.7,2.6-1.3,1.1.4,1.7,1.6,1.3,2.6l-6.7,19.4c-.3.9-1.1,1.4-2,1.4Z"/>
  <path class="cls-3" d="M155.1,202.3c-.2,0-.5,0-.7-.1-1.1-.4-1.7-1.6-1.3-2.6l6.7-19.4c.4-1.1,1.6-1.7,2.6-1.3,1.1.4,1.7,1.6,1.3,2.6l-6.7,19.4c-.3.9-1.1,1.4-2,1.4Z"/>
  <path class="cls-3" d="M183.1,181.5c-.2,0-.5,0-.7-.1-1.1-.4-1.7-1.6-1.3-2.6l6.7-19.4c.4-1.1,1.6-1.7,2.6-1.3,1.1.4,1.7,1.6,1.3,2.6l-6.7,19.4c-.3.9-1.1,1.4-2,1.4Z"/>
  <path class="cls-3" d="M170.2,219c-.2,0-.5,0-.7-.1-1.1-.4-1.7-1.6-1.3-2.6l6.7-19.4c.4-1.1,1.6-1.7,2.6-1.3,1.1.4,1.7,1.6,1.3,2.6l-6.7,19.4c-.3.9-1.1,1.4-2,1.4Z"/>
  <polyline class="cls-2" points="112.5 99.8 101.6 130 116.7 130 100.9 175 155.1 116.8 136.3 117.2 147.5 99.8 112.5 99.8"/>
</svg>