<?xml version="1.0" encoding="UTF-8"?>
<svg id="Layer_1" data-name="Layer 1" xmlns="http://www.w3.org/2000/svg" version="1.1" viewBox="0 0 256 256">
  <defs>
    <style>
      .cls-1 {
        fill: #4390b3;
      }

      .cls-1, .cls-2 {
        stroke-width: 0px;
      }

      .cls-2 {
        fill: #7bd8f7;
      }
    </style>
  </defs>
  <path class="cls-1" d="M161.7,144.6H30.7c-4.2,0-7.6,3.4-7.6,7.6s3.4,7.6,7.6,7.6h131.1c10.1,0,18.4,8.3,18.4,18.4s-8.3,18.4-18.4,18.4-7.6,3.4-7.6,7.6,3.4,7.6,7.6,7.6c18.5,0,33.5-15,33.5-33.5,0-18.5-15-33.5-33.5-33.5Z"/>
  <path class="cls-1" d="M199.5,111.4H30.7c-4.2,0-7.6-3.4-7.6-7.6s3.4-7.6,7.6-7.6h168.9c10.1,0,18.4-8.3,18.4-18.4s-8.3-18.4-18.4-18.4-7.6-3.4-7.6-7.6,3.4-7.6,7.6-7.6c18.5,0,33.5,15,33.5,33.5,0,18.5-15,33.5-33.5,33.5Z"/>
  <path class="cls-2" d="M167.6,129.4H25.3c-1.3,0-2.4-1.1-2.4-2.4s1.1-2.4,2.4-2.4h142.3c1.3,0,2.4,1.1,2.4,2.4s-1.1,2.4-2.4,2.4Z"/>
  <path class="cls-2" d="M167.6,81.2H62.8c-1.3,0-2.4-1.1-2.4-2.4s1.1-2.4,2.4-2.4h104.8c1.3,0,2.4,1.1,2.4,2.4s-1.1,2.4-2.4,2.4Z"/>
  <path class="cls-2" d="M140.9,177.5h-75.4c-1.3,0-2.4-1.1-2.4-2.4s1.1-2.4,2.4-2.4h75.4c1.3,0,2.4,1.1,2.4,2.4,0,1.3-1.1,2.4-2.4,2.4Z"/>
</svg>