<?xml version="1.0" encoding="UTF-8"?>
<svg id="Layer_1" data-name="Layer 1" xmlns="http://www.w3.org/2000/svg" version="1.1" viewBox="0 0 256 256">
  <defs>
    <style>
      .cls-1 {
        fill: #231f20;
      }

      .cls-1, .cls-2 {
        stroke-width: 0px;
      }

      .cls-2 {
        fill: #fff;
      }
    </style>
  </defs>
  <path class="cls-1" d="M27.4,124.6c0-1.4-.2-2.9-.2-4.4,0-35.7,29-64.7,64.7-64.7s48.1,15.2,58.5,37.1c7.8-5.5,17.3-8.8,27.6-8.8,23.8,0,43.5,17.5,47.1,40.3,16.4,4.5,28.5,19.5,28.5,37.3s-17.3,38.7-38.7,38.7H39.5c-21.4,0-38.7-17.3-38.7-38.7s11.2-31.7,26.6-36.8Z"/>
  <path class="cls-2" d="M149.4,189.4l-11.5-20c-4.7-7.6-7.6-12.6-10.5-17.8h-.3c-2.5,5.2-5.1,10.1-9.8,18l-10.9,19.9h-13.4l27.6-45.7-26.6-44.7h13.5l11.9,21.2c3.4,5.9,5.9,10.5,8.3,15.3h.4c2.5-5.4,4.8-9.5,8.2-15.3l12.3-21.2h13.4l-27.5,44,28.2,46.4h-13.5Z"/>
</svg>