<?xml version="1.0" encoding="UTF-8"?>
<svg id="Layer_1" data-name="Layer 1" xmlns="http://www.w3.org/2000/svg" version="1.1" viewBox="0 0 24 24">
  <defs>
    <style>
      .cls-1 {
        fill: #e8eaed;
        stroke-width: 0px;
      }
    </style>
  </defs>
  <path class="cls-1" d="M12,12c.6,0,1-.2,1.4-.6.4-.4.6-.9.6-1.4s-.2-1-.6-1.4-.9-.6-1.4-.6-1,.2-1.4.6-.6.9-.6,1.4.2,1,.6,1.4c.4.4.9.6,1.4.6ZM12,19.4c2-1.9,3.5-3.6,4.5-5.1s1.5-2.9,1.5-4.1c0-1.8-.6-3.3-1.7-4.5s-2.6-1.7-4.3-1.7-3.1.6-4.3,1.7-1.7,2.6-1.7,4.5.5,2.5,1.5,4.1,2.5,3.2,4.5,5.1ZM12,22c-2.7-2.3-4.7-4.4-6-6.4s-2-3.8-2-5.4c0-2.5.8-4.5,2.4-6,1.6-1.5,3.5-2.2,5.6-2.2s4,.7,5.6,2.2,2.4,3.5,2.4,6-.7,3.5-2,5.4-3.3,4.1-6,6.4Z"/>
</svg>